# xmcd CD database file
#
# Track frame offsets:
#	150
#	28457
#	40722
#	53277
#	69372
#	81707
#	94310
#	122142
#	133185
#	146682
#	164310
#	183772
#	194040
#	217065
#	227420
#	250887
#	262857
#	290002
#
# Disc length: 4179 seconds
#
# Revision: 0
# Processed by: cddbd v1.4PL0 Copyright (c) Steve Scherf et al.
# Submitted via: CDex 1.50Beta5
#
DISCID=10105112
DTITLE=Duke Ellington - The Complete Capitol Recordings of Duke Ellington [CD3]
DYEAR=1900
DGENRE=Jazz
TTITLE0=Flying Home
TTITLE1=Chile Bowl
TTITLE2=Blue Moon
TTITLE3=Oh Well
TTITLE4=Just A-Sittin' and A-Rockin'
TTITLE5=Ultra Deluxe
TTITLE6=Flying Home (Alt)
TTITLE7=What More Can I Say?
TTITLE8=Serious Serenade
TTITLE9=Just A-Sittin' and A-Rockin' (Alt)
TTITLE10=Honeysuckle Rose
TTITLE11=Night Time 
TTITLE12=Stompin' at the Savoy
TTITLE13=Don't Ever Say Goodbye
TTITLE14=Black and Tan Fantasy
TTITLE15=Frivolous Banta
TTITLE16=In The Mood
TTITLE17=One O'Clock Jump
EXTD=
EXTT0=
EXTT1=
EXTT2=
EXTT3=
EXTT4=
EXTT5=
EXTT6=
EXTT7=
EXTT8=
EXTT9=
EXTT10=
EXTT11=
EXTT12=
EXTT13=
EXTT14=
EXTT15=
EXTT16=
EXTT17=
PLAYORDER=
